<svg xmlns="http://www.w3.org/2000/svg" xmlns:xlink="http://www.w3.org/1999/xlink" width="500" zoomAndPan="magnify" viewBox="0 0 375 374.999991" height="500" preserveAspectRatio="xMidYMid meet" version="1.0"><defs><filter x="0%" y="0%" width="100%" height="100%" id="be0fa8917b"><feColorMatrix values="0 0 0 0 1 0 0 0 0 1 0 0 0 0 1 0 0 0 1 0" color-interpolation-filters="sRGB"/></filter><g/><clipPath id="6a7ff9acb7"><path d="M 177 102.765625 L 198 102.765625 L 198 148 L 177 148 Z M 177 102.765625 " clip-rule="nonzero"/></clipPath><mask id="d4ea4a39dd"><g filter="url(#be0fa8917b)"><rect x="-37.5" width="450" fill="#000000" y="-37.499999" height="449.999989" fill-opacity="0.85"/></g></mask><clipPath id="18d837fdbd"><rect x="0" width="135" y="0" height="41"/></clipPath></defs><rect x="-37.5" width="450" fill="#ffffff" y="-37.499999" height="449.999989" fill-opacity="1"/><rect x="-37.5" width="450" fill="#ffffff" y="-37.499999" height="449.999989" fill-opacity="1"/><g clip-path="url(#6a7ff9acb7)"><path fill="#26bd59" d="M 194.476562 119.539062 C 196.242188 117.765625 197.34375 115.316406 197.34375 112.609375 C 197.34375 107.167969 192.929688 102.765625 187.5 102.765625 C 182.058594 102.765625 177.65625 107.167969 177.65625 112.609375 C 177.65625 115.3125 178.753906 117.757812 180.523438 119.539062 C 179.503906 120.039062 178.78125 121.070312 178.78125 122.285156 C 178.78125 123.992188 180.167969 125.375 181.867188 125.375 L 182.023438 125.375 L 182.535156 145.039062 C 183.996094 145.953125 185.6875 146.914062 187.503906 147.90625 C 189.339844 146.914062 190.992188 145.953125 192.453125 145.039062 L 192.96875 125.375 L 193.121094 125.375 C 194.828125 125.375 196.210938 123.988281 196.210938 122.285156 C 196.21875 121.066406 195.496094 120.039062 194.476562 119.539062 Z M 194.476562 119.539062 " fill-opacity="1" fill-rule="nonzero"/></g><path fill="#26bd59" d="M 186.839844 215.304688 C 186.054688 214.886719 185.214844 214.484375 184.339844 214.097656 L 184.699219 227.792969 C 184.742188 229.386719 186.003906 230.699219 187.5 230.699219 C 188.996094 230.699219 190.257812 229.386719 190.300781 227.792969 L 190.566406 217.667969 C 189.457031 216.847656 188.214844 216.027344 186.839844 215.304688 Z M 186.839844 215.304688 " fill-opacity="1" fill-rule="nonzero"/><path fill="#26bd59" d="M 191.179688 179.789062 C 191.300781 179.851562 191.425781 179.917969 191.546875 179.980469 L 191.859375 168.195312 C 190.980469 167.476562 189.839844 166.683594 188.421875 165.839844 C 186.671875 164.796875 184.851562 163.8125 183.070312 162.84375 L 183 162.808594 L 183.328125 175.183594 C 184.714844 176.339844 186.664062 177.457031 188.480469 178.414062 C 189.363281 178.875 190.257812 179.332031 191.179688 179.789062 Z M 191.179688 179.789062 " fill-opacity="1" fill-rule="nonzero"/><path fill="#26bd59" d="M 185.566406 192.554688 C 184.972656 192.300781 184.363281 192.015625 183.757812 191.746094 L 183.992188 200.746094 C 184.613281 201.128906 185.226562 201.492188 185.757812 201.796875 L 187.117188 202.554688 C 188.359375 203.257812 189.640625 203.996094 190.902344 204.773438 L 191.15625 195.222656 C 190.835938 195.042969 190.546875 194.867188 190.164062 194.675781 C 188.726562 193.957031 187.1875 193.273438 185.566406 192.554688 Z M 185.566406 192.554688 " fill-opacity="1" fill-rule="nonzero"/><path fill="#26bd59" d="M 213.363281 129.867188 C 213.109375 129.054688 212.917969 128.222656 212.5625 127.574219 C 211.953125 126.175781 211.167969 125.148438 210.429688 124.25 C 207.363281 120.847656 204.757812 119.75 203.050781 119.148438 C 201.316406 118.609375 200.375 118.8125 200.054688 119.375 C 199.726562 119.941406 199.992188 120.792969 200.914062 122.144531 C 201.785156 123.476562 203.527344 125.390625 204.960938 128.085938 C 205.292969 128.746094 205.621094 129.464844 205.746094 130.152344 C 205.875 130.496094 205.824219 130.808594 205.902344 131.144531 C 205.832031 131.5 205.902344 131.621094 205.800781 132.230469 C 205.589844 134.304688 205.007812 136.46875 203.761719 138.621094 C 201.707031 142.363281 197.140625 145.851562 190.542969 149.558594 C 192.335938 150.527344 194.285156 151.59375 196.339844 152.863281 C 197.398438 153.523438 198.488281 154.25 199.578125 155.046875 C 200.894531 154.1875 202.171875 153.296875 203.367188 152.351562 C 206.863281 149.59375 209.785156 146.242188 211.492188 142.621094 C 213.226562 139.015625 213.746094 135.398438 213.632812 132.433594 C 213.660156 131.78125 213.492188 130.683594 213.363281 129.867188 Z M 213.363281 129.867188 " fill-opacity="1" fill-rule="nonzero"/><path fill="#26bd59" d="M 203.078125 193.007812 C 202.640625 192.0625 202.050781 191.199219 201.496094 190.320312 C 200.847656 189.613281 200.191406 188.882812 199.503906 188.230469 L 197.386719 186.574219 L 195.261719 185.234375 C 192.441406 183.597656 189.675781 182.328125 187.132812 180.980469 C 184.605469 179.65625 182.222656 178.285156 180.652344 176.707031 C 179.050781 175.128906 178.332031 173.617188 178.195312 171.785156 C 177.976562 169.886719 178.460938 168.925781 179.738281 167.40625 C 179.875 167.253906 180.050781 167.097656 180.207031 166.945312 L 180.050781 161.15625 C 178.5625 160.328125 177.066406 159.523438 175.585938 158.609375 C 174.628906 159.410156 173.679688 160.277344 172.757812 161.332031 C 171.582031 162.738281 170.425781 164.425781 169.753906 166.5 C 169.078125 168.542969 168.914062 170.84375 169.230469 172.738281 C 169.570312 176.722656 171.929688 180.726562 174.765625 183.117188 C 177.59375 185.632812 180.621094 187.089844 183.457031 188.425781 C 186.296875 189.75 189.054688 190.851562 191.464844 192.078125 C 193.859375 193.28125 195.820312 194.691406 196.441406 196.03125 C 196.511719 196.40625 196.753906 196.679688 196.824219 197.101562 C 196.878906 197.527344 196.992188 197.96875 196.929688 198.292969 C 196.890625 199.007812 196.726562 199.589844 196.152344 200.292969 C 195.640625 201 194.8125 201.6875 193.863281 202.347656 L 193.75 206.65625 C 194.480469 207.195312 195.210938 207.769531 195.953125 208.417969 C 197.660156 207.558594 199.449219 206.511719 201.199219 204.664062 C 202.515625 203.351562 203.601562 201.253906 203.867188 199.148438 C 204.226562 197.027344 203.824219 195.109375 203.078125 193.007812 Z M 203.078125 193.007812 " fill-opacity="1" fill-rule="nonzero"/><path fill="#26bd59" d="M 181.398438 212.769531 L 180.378906 212.308594 L 179.550781 211.914062 C 179.238281 212.21875 178.875 212.542969 178.585938 212.828125 C 177.0625 214.425781 175.671875 215.988281 174.660156 217.648438 C 172.523438 220.902344 171.847656 224.078125 171.785156 226.160156 C 171.839844 228.277344 172.140625 229.363281 172.445312 229.363281 C 173.285156 229.453125 173.148438 224.75 177.585938 219.859375 C 178.628906 218.71875 179.980469 217.492188 181.484375 216.28125 Z M 181.398438 212.769531 " fill-opacity="1" fill-rule="nonzero"/><path fill="#26bd59" d="M 175.5 188.234375 C 174.816406 188.882812 174.152344 189.617188 173.507812 190.324219 C 172.945312 191.199219 172.351562 192.066406 171.929688 193.015625 C 171.171875 195.113281 170.777344 197.03125 171.132812 199.160156 C 171.386719 201.265625 172.484375 203.359375 173.800781 204.675781 C 176.4375 207.460938 179.1875 208.484375 181.585938 209.667969 C 184.015625 210.773438 186.242188 211.695312 188.199219 212.734375 C 191.941406 214.707031 195.25 217.527344 197.40625 219.871094 C 201.84375 224.765625 201.703125 229.460938 202.546875 229.375 C 202.847656 229.375 203.15625 228.289062 203.207031 226.171875 C 203.132812 224.089844 202.464844 220.914062 200.332031 217.664062 C 199.3125 216 197.921875 214.441406 196.40625 212.839844 C 194.9375 211.34375 193.039062 209.59375 190.898438 208.210938 C 188.792969 206.796875 186.507812 205.574219 184.304688 204.324219 C 182.167969 203.089844 179.875 201.746094 178.839844 200.3125 C 178.261719 199.609375 178.089844 199.023438 178.0625 198.3125 C 178 197.992188 178.109375 197.546875 178.15625 197.117188 C 178.238281 196.699219 178.46875 196.421875 178.546875 196.046875 C 178.914062 195.253906 179.78125 194.449219 180.898438 193.664062 L 180.808594 190.394531 C 179.328125 189.671875 177.738281 188.816406 176.105469 187.757812 Z M 175.5 188.234375 " fill-opacity="1" fill-rule="nonzero"/><path fill="#26bd59" d="M 205.769531 172.742188 C 206.078125 170.84375 205.921875 168.546875 205.246094 166.503906 C 204.578125 164.433594 203.417969 162.742188 202.234375 161.335938 C 199.804688 158.558594 197.214844 156.835938 194.8125 155.335938 C 192.390625 153.839844 190.101562 152.625 187.988281 151.464844 C 179.460938 147.035156 173.640625 143 171.238281 138.621094 C 169.992188 136.472656 169.410156 134.304688 169.199219 132.230469 C 169.089844 131.621094 169.15625 131.5 169.097656 131.144531 C 169.179688 130.8125 169.125 130.496094 169.253906 130.152344 C 169.375 129.464844 169.707031 128.75 170.03125 128.085938 C 171.472656 125.390625 173.214844 123.476562 174.085938 122.144531 C 175.007812 120.792969 175.277344 119.941406 174.945312 119.375 C 174.625 118.8125 173.675781 118.609375 171.941406 119.148438 C 170.242188 119.75 167.625 120.847656 164.5625 124.25 C 163.832031 125.148438 163.039062 126.175781 162.429688 127.574219 C 162.082031 128.222656 161.890625 129.054688 161.636719 129.867188 C 161.507812 130.683594 161.332031 131.78125 161.363281 132.433594 C 161.253906 135.398438 161.773438 139.023438 163.503906 142.621094 C 165.207031 146.242188 168.132812 149.589844 171.628906 152.351562 C 175.125 155.15625 179.207031 157.457031 183.480469 159.777344 C 185.617188 160.933594 187.816406 162.09375 189.894531 163.34375 C 191.980469 164.585938 193.957031 165.972656 195.242188 167.40625 C 196.53125 168.933594 197.007812 169.890625 196.785156 171.785156 C 196.664062 173.535156 195.984375 174.988281 194.53125 176.492188 L 194.410156 181.460938 C 195.167969 181.863281 195.933594 182.273438 196.710938 182.722656 L 198.9375 184.121094 L 198.964844 184.148438 C 199.390625 183.828125 199.804688 183.488281 200.214844 183.121094 C 203.066406 180.730469 205.425781 176.730469 205.769531 172.742188 Z M 205.769531 172.742188 " fill-opacity="1" fill-rule="nonzero"/><path fill="#26bd59" d="M 166.996094 165.597656 C 167.671875 163.492188 168.796875 161.542969 170.527344 159.472656 C 171.285156 158.605469 172.109375 157.800781 173.050781 156.980469 C 171.9375 156.234375 170.847656 155.449219 169.8125 154.617188 C 165.800781 151.457031 162.699219 147.730469 160.875 143.871094 C 158.6875 139.316406 158.355469 135.070312 158.46875 132.320312 C 158.417969 131.664062 158.582031 130.558594 158.765625 129.40625 L 158.800781 129.207031 L 159.011719 128.519531 C 159.21875 127.789062 159.457031 126.976562 159.871094 126.199219 C 160.035156 125.8125 160.261719 125.488281 160.464844 125.132812 C 151.425781 131.1875 135.929688 139.945312 118.34375 142.796875 C 112.609375 143.726562 118.234375 150.019531 137.515625 151.339844 C 137.515625 151.339844 133.191406 152.890625 129.285156 152.890625 C 124.855469 152.890625 138.140625 161.671875 156.027344 160.316406 C 156.027344 160.316406 152.839844 161.867188 147.078125 162.304688 C 144.242188 162.523438 153.152344 168.632812 166.480469 167.65625 C 166.609375 166.953125 166.773438 166.265625 166.996094 165.597656 Z M 166.996094 165.597656 " fill-opacity="1" fill-rule="nonzero"/><path fill="#26bd59" d="M 208.003906 165.597656 C 207.328125 163.492188 206.195312 161.542969 204.472656 159.472656 C 203.714844 158.605469 202.878906 157.800781 201.949219 156.980469 C 203.0625 156.234375 204.152344 155.449219 205.1875 154.617188 C 209.199219 151.457031 212.300781 147.730469 214.125 143.871094 C 216.320312 139.320312 216.648438 135.070312 216.535156 132.320312 C 216.582031 131.667969 216.425781 130.558594 216.234375 129.40625 L 216.207031 129.207031 L 215.996094 128.519531 C 215.789062 127.789062 215.542969 126.976562 215.128906 126.199219 C 214.957031 125.8125 214.738281 125.488281 214.535156 125.132812 C 223.566406 131.1875 239.070312 139.945312 256.644531 142.800781 C 262.390625 143.730469 256.765625 150.023438 237.484375 151.34375 C 237.484375 151.34375 241.808594 152.894531 245.714844 152.894531 C 250.136719 152.894531 236.859375 161.679688 218.964844 160.320312 C 218.964844 160.320312 222.160156 161.871094 227.921875 162.3125 C 230.757812 162.527344 221.847656 168.636719 208.519531 167.660156 C 208.390625 166.953125 208.226562 166.265625 208.003906 165.597656 Z M 208.003906 165.597656 " fill-opacity="1" fill-rule="nonzero"/><g mask="url(#d4ea4a39dd)"><g transform="matrix(1, 0, 0, 1, 120, 222)"><g clip-path="url(#18d837fdbd)"><g fill="#15a446" fill-opacity="1"><g transform="translate(0.657008, 29.459427)"><g><path d="M 6.34375 0 L 0.140625 -19.3125 L 6.046875 -19.3125 L 7.390625 -15.015625 L 9.359375 -9 L 11.3125 -15.015625 L 12.75 -19.3125 L 18.046875 -19.3125 L 21.46875 -8.828125 L 23.453125 -15.015625 L 24.8125 -19.3125 L 30.65625 -19.3125 L 24.453125 0 L 18.90625 0 L 15.390625 -10.734375 L 11.890625 0 Z M 6.34375 0 "/></g></g></g><g fill="#15a446" fill-opacity="1"><g transform="translate(31.455929, 29.459427)"><g><path d="M 2.046875 0 L 2.046875 -19.3125 L 15.28125 -19.3125 L 15.28125 -14.8125 L 7.5625 -14.8125 L 7.5625 -12 L 14.546875 -12 L 14.546875 -7.53125 L 7.5625 -7.53125 L 7.5625 -4.546875 L 15.59375 -4.546875 L 15.59375 0 Z M 2.046875 0 "/></g></g></g><g fill="#15a446" fill-opacity="1"><g transform="translate(48.290473, 29.459427)"><g/></g></g><g fill="#15a446" fill-opacity="1"><g transform="translate(54.665518, 29.459427)"><g><path d="M 11.0625 0.40625 C 9.0625 0.40625 7.300781 -0.015625 5.78125 -0.859375 C 4.257812 -1.703125 3.070312 -2.878906 2.21875 -4.390625 C 1.363281 -5.910156 0.9375 -7.664062 0.9375 -9.65625 C 0.9375 -11.644531 1.359375 -13.394531 2.203125 -14.90625 C 3.054688 -16.425781 4.238281 -17.609375 5.75 -18.453125 C 7.269531 -19.304688 9.023438 -19.734375 11.015625 -19.734375 C 12.742188 -19.734375 14.304688 -19.398438 15.703125 -18.734375 C 17.097656 -18.078125 18.269531 -17.148438 19.21875 -15.953125 C 20.164062 -14.753906 20.804688 -13.335938 21.140625 -11.703125 L 15.5 -11.703125 C 15.207031 -12.566406 14.675781 -13.257812 13.90625 -13.78125 C 13.132812 -14.300781 12.242188 -14.5625 11.234375 -14.5625 C 10.328125 -14.5625 9.523438 -14.351562 8.828125 -13.9375 C 8.128906 -13.53125 7.582031 -12.957031 7.1875 -12.21875 C 6.789062 -11.488281 6.59375 -10.632812 6.59375 -9.65625 C 6.59375 -8.695312 6.785156 -7.84375 7.171875 -7.09375 C 7.554688 -6.351562 8.09375 -5.773438 8.78125 -5.359375 C 9.476562 -4.953125 10.273438 -4.75 11.171875 -4.75 C 12.222656 -4.75 13.132812 -5.019531 13.90625 -5.5625 C 14.675781 -6.101562 15.238281 -6.820312 15.59375 -7.71875 L 21.25 -7.71875 C 20.96875 -6.082031 20.359375 -4.648438 19.421875 -3.421875 C 18.484375 -2.203125 17.300781 -1.257812 15.875 -0.59375 C 14.445312 0.0703125 12.84375 0.40625 11.0625 0.40625 Z M 11.0625 0.40625 "/></g></g></g><g fill="#15a446" fill-opacity="1"><g transform="translate(76.798802, 29.459427)"><g><path d="M 0.140625 0 L 7.640625 -19.3125 L 13.15625 -19.3125 L 20.671875 0 L 14.734375 0 L 13.6875 -2.734375 L 7.09375 -2.734375 L 6.046875 0 Z M 8.25 -6.8125 L 12.5625 -6.8125 L 10.40625 -12.796875 Z M 8.25 -6.8125 "/></g></g></g><g fill="#15a446" fill-opacity="1"><g transform="translate(97.607398, 29.459427)"><g><path d="M 2.046875 0 L 2.046875 -19.3125 L 10.84375 -19.3125 C 12.40625 -19.3125 13.75 -19.03125 14.875 -18.46875 C 16.007812 -17.90625 16.882812 -17.109375 17.5 -16.078125 C 18.125 -15.054688 18.4375 -13.828125 18.4375 -12.390625 C 18.4375 -11.046875 18.160156 -9.875 17.609375 -8.875 C 17.054688 -7.875 16.265625 -7.085938 15.234375 -6.515625 L 18.796875 0 L 12.46875 0 L 9.71875 -5.484375 L 7.609375 -5.484375 L 7.609375 0 Z M 7.5 -9.9375 L 10.09375 -9.9375 C 10.976562 -9.9375 11.65625 -10.144531 12.125 -10.5625 C 12.59375 -10.988281 12.828125 -11.585938 12.828125 -12.359375 C 12.828125 -13.128906 12.59375 -13.722656 12.125 -14.140625 C 11.65625 -14.554688 10.976562 -14.765625 10.09375 -14.765625 L 7.5 -14.765625 Z M 7.5 -9.9375 "/></g></g></g><g fill="#15a446" fill-opacity="1"><g transform="translate(117.47767, 29.459427)"><g><path d="M 2.046875 0 L 2.046875 -19.3125 L 15.28125 -19.3125 L 15.28125 -14.8125 L 7.5625 -14.8125 L 7.5625 -12 L 14.546875 -12 L 14.546875 -7.53125 L 7.5625 -7.53125 L 7.5625 -4.546875 L 15.59375 -4.546875 L 15.59375 0 Z M 2.046875 0 "/></g></g></g></g></g></g></svg>